<svg width="402" height="126" viewBox="0 0 402 126" fill="none" xmlns="http://www.w3.org/2000/svg">
<path d="M303.357 126H402C363.203 97.9125 317.132 70.275 273.78 50.3962C158.26 -2.50399 57.3584 -10.5086 0 11.347V26.7903C27.9074 14.7356 75.2028 14.902 137.527 29.3859C194.009 42.6217 283.771 79.2822 335.796 111.144C345.687 117.155 342.111 116.043 300.208 100.737C158.322 48.826 50.3219 47.2445 56.9116 105.178C57.4692 110.072 60.3918 117.338 64.9294 126H84.1881C52.1768 70.8518 98.6813 67.9298 238.342 104.077C251.553 107.429 277.559 116.372 303.357 126Z" fill="#00D4E4"/>
</svg>
