<svg width="24" height="24" viewBox="0 0 24 24" fill="none" xmlns="http://www.w3.org/2000/svg">
<path d="M24 12C24 18.6274 18.6274 24 12 24C5.37258 24 0 18.6274 0 12C0 5.37258 5.37258 0 12 0C18.6274 0 24 5.37258 24 12ZM3.20617 12C3.20617 16.8567 7.1433 20.7938 12 20.7938C16.8567 20.7938 20.7938 16.8567 20.7938 12C20.7938 7.1433 16.8567 3.20617 12 3.20617C7.1433 3.20617 3.20617 7.1433 3.20617 12Z" fill="#D5D5D5"/>
<path d="M0 12C1.72616e-07 10.0255 0.487223 8.0815 1.41846 6.3404C2.3497 4.59929 3.69619 3.11488 5.33851 2.01879C6.98084 0.922694 8.86826 0.248793 10.8334 0.0568401C12.7986 -0.135113 14.7807 0.160815 16.6041 0.918382L15.374 3.87918C14.0378 3.32402 12.5852 3.10716 11.1451 3.24783C9.705 3.38849 8.32187 3.88234 7.11834 4.68558C5.91481 5.48882 4.92808 6.57662 4.24565 7.85254C3.56322 9.12845 3.20618 10.553 3.20617 12H0Z" fill="#F8918B"/>
</svg>
