<svg width="245" height="30" viewBox="0 0 245 30" fill="none" xmlns="http://www.w3.org/2000/svg">
<path d="M21.2246 29.6193H15.9708L7.30965 16.9797L4.56853 19.2069V29.6193H0V1.78934H4.56853V15.0952C5.1269 14.4099 5.69163 13.7246 6.26269 13.0393C6.83376 12.3541 7.40482 11.6688 7.97589 10.9835L15.8185 1.78934H20.9772L10.5838 13.9721L21.2246 29.6193Z" fill="#F8F6F6"/>
<path d="M32.8363 8.14721C34.7145 8.14721 36.3262 8.53426 37.6713 9.30838C39.0165 10.0825 40.0508 11.1802 40.7741 12.6015C41.4975 14.0228 41.8591 15.7234 41.8591 17.703V20.1015H27.7919C27.8426 22.1447 28.3883 23.7183 29.4289 24.8223C30.4822 25.9264 31.9543 26.4784 33.8452 26.4784C35.1904 26.4784 36.396 26.3515 37.4619 26.0977C38.5406 25.8312 39.651 25.4442 40.7932 24.9366V28.5723C39.7399 29.0673 38.6675 29.4289 37.5762 29.6574C36.4848 29.8858 35.1777 30 33.6548 30C31.5863 30 29.7652 29.6003 28.1916 28.8008C26.6307 27.9886 25.4061 26.783 24.5178 25.184C23.6421 23.585 23.2043 21.599 23.2043 19.2259C23.2043 16.8655 23.6041 14.8604 24.4036 13.2107C25.2031 11.5609 26.3262 10.3046 27.7729 9.44162C29.2196 8.57868 30.9074 8.14721 32.8363 8.14721ZM32.8363 11.5165C31.4277 11.5165 30.2855 11.9733 29.4099 12.8871C28.547 13.8008 28.0393 15.1396 27.8871 16.9036H37.481C37.4683 15.8503 37.2906 14.9175 36.948 14.1053C36.618 13.2931 36.1104 12.6586 35.4251 12.2018C34.7525 11.7449 33.8896 11.5165 32.8363 11.5165Z" fill="#F8F6F6"/>
<path d="M51.396 29.6193H46.9036V0H51.396V29.6193Z" fill="#F8F6F6"/>
<path d="M64 12.8871L62.2652 29.6193H57.7919L56 12.8871C56 12.8871 59.0284 13.6838 60 13.6939C60.9915 13.7041 64 12.8871 64 12.8871Z" fill="#F8F6F6"/>
<path d="M76.9416 8.14721C79.6066 8.14721 81.618 8.73731 82.9759 9.91751C84.3465 11.0977 85.0318 12.9378 85.0318 15.4378V29.6193H81.8528L80.9962 26.6307H80.8439C80.2475 27.3921 79.632 28.0203 78.9975 28.5152C78.363 29.0102 77.6269 29.3782 76.7894 29.6193C75.9645 29.8731 74.9556 30 73.7627 30C72.5064 30 71.3833 29.7716 70.3934 29.3147C69.4036 28.8452 68.6231 28.1345 68.052 27.1827C67.481 26.231 67.1954 25.0254 67.1954 23.566C67.1954 21.3959 68.0013 19.7652 69.613 18.6739C71.2373 17.5825 73.6866 16.9797 76.9607 16.8655L80.6155 16.7322V15.6282C80.6155 14.1688 80.2729 13.1282 79.5876 12.5063C78.915 11.8845 77.9632 11.5736 76.7323 11.5736C75.679 11.5736 74.6574 11.7259 73.6675 12.0305C72.6777 12.335 71.7132 12.7094 70.7741 13.1536L69.3274 9.99365C70.3554 9.44797 71.5229 9.00381 72.83 8.66117C74.1498 8.31853 75.5203 8.14721 76.9416 8.14721ZM80.5965 19.5495L77.8744 19.6447C75.6409 19.7208 74.0736 20.1015 73.1726 20.7868C72.2716 21.4721 71.8211 22.4112 71.8211 23.6041C71.8211 24.6447 72.132 25.4061 72.7538 25.8883C73.3757 26.3579 74.1942 26.5926 75.2094 26.5926C76.7576 26.5926 78.0394 26.1548 79.0546 25.2792C80.0825 24.3909 80.5965 23.0901 80.5965 21.3769V19.5495Z" fill="#F8F6F6"/>
<path d="M109.664 8.54696V29.6193H106.142L105.533 26.783H105.286C104.841 27.5063 104.277 28.1091 103.591 28.5914C102.906 29.0609 102.145 29.4099 101.307 29.6383C100.47 29.8794 99.5876 30 98.6612 30C97.0749 30 95.717 29.7335 94.5876 29.2005C93.4708 28.6548 92.6142 27.8173 92.0178 26.6878C91.4213 25.5584 91.1231 24.099 91.1231 22.3096V8.54696H95.6155V21.4721C95.6155 23.1091 95.9455 24.3338 96.6054 25.1459C97.278 25.9581 98.3186 26.3642 99.7272 26.3642C101.085 26.3642 102.164 26.085 102.963 25.5267C103.763 24.9683 104.327 24.1434 104.657 23.052C105 21.9607 105.171 20.6218 105.171 19.0355V8.54696H109.664Z" fill="#F8F6F6"/>
<path d="M120.552 0V14.3147C120.552 14.9619 120.527 15.6726 120.476 16.4467C120.425 17.2081 120.374 17.9251 120.324 18.5977H120.419C120.749 18.1536 121.142 17.6333 121.599 17.0368C122.069 16.4404 122.513 15.9201 122.932 15.4759L129.366 8.54696H134.505L126.072 17.6079L135.057 29.6193H129.803L123.065 20.368L120.552 22.519V29.6193H116.079V0H120.552Z" fill="#F8F6F6"/>
<path d="M153.027 0V14.3147C153.027 14.9619 153.001 15.6726 152.951 16.4467C152.9 17.2081 152.849 17.9251 152.798 18.5977H152.893C153.223 18.1536 153.617 17.6333 154.074 17.0368C154.543 16.4404 154.987 15.9201 155.406 15.4759L161.84 8.54696H166.98L158.547 17.6079L167.532 29.6193H162.278L155.539 20.368L153.027 22.519V29.6193H148.553V0H153.027Z" fill="#F8F6F6"/>
<path d="M179.162 8.14721C181.827 8.14721 183.839 8.73731 185.197 9.91751C186.567 11.0977 187.253 12.9378 187.253 15.4378V29.6193H184.074L183.217 26.6307H183.065C182.468 27.3921 181.853 28.0203 181.218 28.5152C180.584 29.0102 179.848 29.3782 179.01 29.6193C178.185 29.8731 177.176 30 175.984 30C174.727 30 173.604 29.7716 172.614 29.3147C171.624 28.8452 170.844 28.1345 170.273 27.1827C169.702 26.231 169.416 25.0254 169.416 23.566C169.416 21.3959 170.222 19.7652 171.834 18.6739C173.458 17.5825 175.907 16.9797 179.182 16.8655L182.836 16.7322V15.6282C182.836 14.1688 182.494 13.1282 181.808 12.5063C181.136 11.8845 180.184 11.5736 178.953 11.5736C177.9 11.5736 176.878 11.7259 175.888 12.0305C174.899 12.335 173.934 12.7094 172.995 13.1536L171.548 9.99365C172.576 9.44797 173.744 9.00381 175.051 8.66117C176.371 8.31853 177.741 8.14721 179.162 8.14721ZM182.817 19.5495L180.095 19.6447C177.862 19.7208 176.294 20.1015 175.393 20.7868C174.492 21.4721 174.042 22.4112 174.042 23.6041C174.042 24.6447 174.353 25.4061 174.975 25.8883C175.596 26.3579 176.415 26.5926 177.43 26.5926C178.978 26.5926 180.26 26.1548 181.275 25.2792C182.303 24.3909 182.817 23.0901 182.817 21.3769V19.5495Z" fill="#F8F6F6"/>
<path d="M204.194 8.14721C204.55 8.14721 204.937 8.16625 205.355 8.20432C205.774 8.24239 206.136 8.29315 206.44 8.3566L206.022 12.5444C205.755 12.4683 205.425 12.4112 205.032 12.3731C204.651 12.335 204.308 12.316 204.004 12.316C203.204 12.316 202.443 12.4492 201.72 12.7157C200.996 12.9695 200.355 13.3629 199.797 13.8959C199.239 14.4162 198.801 15.0698 198.484 15.8566C198.166 16.6434 198.008 17.5571 198.008 18.5977V29.6193H193.515V8.54696H197.018L197.627 12.2589H197.836C198.255 11.5102 198.775 10.8249 199.397 10.203C200.019 9.58122 200.73 9.0863 201.529 8.71827C202.341 8.33756 203.23 8.14721 204.194 8.14721Z" fill="#F8F6F6"/>
<path d="M218.185 26.3832C218.769 26.3832 219.347 26.3325 219.918 26.231C220.489 26.1168 221.009 25.9835 221.478 25.8312V29.2195C220.984 29.4353 220.343 29.6193 219.556 29.7716C218.769 29.9239 217.951 30 217.1 30C215.907 30 214.835 29.8033 213.883 29.4099C212.932 29.0038 212.176 28.3122 211.618 27.335C211.06 26.3579 210.781 25.0064 210.781 23.2805V11.9543H207.906V9.95558L210.99 8.37564L212.456 3.86422H215.273V8.54696H221.307V11.9543H215.273V23.2234C215.273 24.2893 215.539 25.0825 216.072 25.6028C216.605 26.1231 217.31 26.3832 218.185 26.3832Z" fill="#F8F6F6"/>
<path d="M244.131 8.54696V29.6193H240.609L240 26.783H239.753C239.308 27.5063 238.744 28.1091 238.058 28.5914C237.373 29.0609 236.612 29.4099 235.774 29.6383C234.937 29.8794 234.055 30 233.128 30C231.542 30 230.184 29.7335 229.055 29.2005C227.938 28.6548 227.081 27.8173 226.485 26.6878C225.888 25.5584 225.59 24.099 225.59 22.3096V8.54696H230.083V21.4721C230.083 23.1091 230.413 24.3338 231.072 25.1459C231.745 25.9581 232.786 26.3642 234.194 26.3642C235.552 26.3642 236.631 26.085 237.43 25.5267C238.23 24.9683 238.794 24.1434 239.124 23.052C239.467 21.9607 239.638 20.6218 239.638 19.0355V8.54696H244.131Z" fill="#F8F6F6"/>
<path d="M59.8309 1.79754C62.1749 1.84071 63.4661 2.46458 63.4661 2.46458L63.4219 4.86416L65.2277 6.6622C65.5311 6.96434 65.336 7.45833 64.9 7.4803C63.848 7.53244 62.0664 7.58965 59.725 7.54653C58.5759 7.52537 57.5626 7.48521 56.7048 7.4389L56.7136 7.43907C56.5773 7.88206 56.5494 8.34944 56.6323 8.80478C56.7151 9.26011 56.9064 9.69108 57.1913 10.0641C57.4761 10.4371 57.8468 10.742 58.2743 10.9551C58.7019 11.1681 59.1749 11.2836 59.6563 11.2925C60.1377 11.3014 60.6146 11.2034 61.0497 11.0062C61.4849 10.809 61.8665 10.5179 62.1649 10.1557C62.4632 9.79341 62.6703 9.36978 62.7698 8.9178C62.8694 8.46583 62.8588 7.99773 62.7388 7.55002C63.1246 7.54362 63.4791 7.53465 63.8002 7.52456C63.9207 8.11036 63.903 8.71441 63.7485 9.2924C63.5941 9.8704 63.3067 10.4077 62.9076 10.8649C62.5084 11.3221 62.0076 11.6876 61.4417 11.9346C60.8759 12.1816 60.2595 12.3039 59.6376 12.2924C59.0157 12.281 58.4042 12.1361 57.8479 11.8684C57.2915 11.6007 56.8045 11.217 56.4224 10.7455C56.0404 10.2739 55.773 9.72637 55.6399 9.14308C55.5069 8.55978 55.5114 7.9555 55.6534 7.37453C55.2873 7.34941 54.9215 7.321 54.556 7.28932C54.1211 7.2513 53.9443 6.75096 54.2586 6.4602L56.1299 4.72987L56.1741 2.3303C56.1741 2.3303 57.4868 1.75437 59.8309 1.79754Z" fill="#F8F6F6"/>
</svg>
