<svg width="123" height="16" viewBox="0 0 123 16" fill="none" xmlns="http://www.w3.org/2000/svg">
<path d="M10.6123 15.3096H7.98541L3.65482 8.98985L2.28426 10.1034V15.3096H0V1.39467H2.28426V8.04759C2.56345 7.70495 2.84581 7.36231 3.13135 7.01967C3.41688 6.67703 3.70241 6.33439 3.98794 5.99175L7.90926 1.39467H10.4886L5.29188 7.48604L10.6123 15.3096Z" fill="#00D4E4"/>
<path d="M16.4181 4.5736C17.3572 4.5736 18.1631 4.76713 18.8357 5.15419C19.5082 5.54124 20.0254 6.0901 20.3871 6.80076C20.7487 7.51142 20.9296 8.36167 20.9296 9.35152V10.5508H13.8959C13.9213 11.5723 14.1942 12.3591 14.7145 12.9112C15.2411 13.4632 15.9772 13.7392 16.9226 13.7392C17.5952 13.7392 18.198 13.6758 18.731 13.5489C19.2703 13.4156 19.8255 13.2221 20.3966 12.9683V14.7862C19.8699 15.0336 19.3338 15.2145 18.7881 15.3287C18.2424 15.4429 17.5888 15.5 16.8274 15.5C15.7931 15.5 14.8826 15.3001 14.0958 14.9004C13.3154 14.4943 12.703 13.8915 12.2589 13.092C11.8211 12.2925 11.6022 11.2995 11.6022 10.1129C11.6022 8.93274 11.802 7.9302 12.2018 7.10533C12.6015 6.28046 13.1631 5.65228 13.8864 5.22081C14.6098 4.78934 15.4537 4.5736 16.4181 4.5736ZM16.4181 6.25825C15.7138 6.25825 15.1428 6.48667 14.705 6.94353C14.2735 7.40038 14.0197 8.0698 13.9435 8.95178H18.7405C18.7341 8.42513 18.6453 7.95875 18.474 7.55266C18.309 7.14657 18.0552 6.82931 17.7126 6.60089C17.3763 6.37246 16.9448 6.25825 16.4181 6.25825Z" fill="#00D4E4"/>
<path d="M25.698 15.3096H23.4518V0.5H25.698V15.3096Z" fill="#00D4E4"/>
<path d="M32 6.94353L31.1326 15.3096H28.8959L28 6.94353C28 6.94353 29.5142 7.34189 30 7.34692C30.4957 7.35206 32 6.94353 32 6.94353Z" fill="#00D4E4"/>
<path d="M38.4708 4.5736C39.8033 4.5736 40.809 4.86865 41.4879 5.45875C42.1732 6.04886 42.5159 6.96891 42.5159 8.21891V15.3096H40.9264L40.4981 13.8154H40.422C40.1237 14.1961 39.816 14.5101 39.4987 14.7576C39.1815 15.0051 38.8135 15.1891 38.3947 15.3096C37.9822 15.4365 37.4778 15.5 36.8813 15.5C36.2532 15.5 35.6916 15.3858 35.1967 15.1574C34.7018 14.9226 34.3116 14.5673 34.026 14.0914C33.7405 13.6155 33.5977 13.0127 33.5977 12.283C33.5977 11.198 34.0006 10.3826 34.8065 9.83693C35.6187 9.29124 36.8433 8.98985 38.4803 8.93274L40.3077 8.86612V8.31408C40.3077 7.58439 40.1364 7.06408 39.7938 6.75317C39.4575 6.44226 38.9816 6.2868 38.3661 6.2868C37.8395 6.2868 37.3287 6.36294 36.8338 6.51523C36.3388 6.66751 35.8566 6.85469 35.3871 7.07678L34.6637 5.49682C35.1777 5.22398 35.7614 5.0019 36.415 4.83058C37.0749 4.65926 37.7602 4.5736 38.4708 4.5736ZM40.2982 10.2747L38.9372 10.3223C37.8204 10.3604 37.0368 10.5508 36.5863 10.8934C36.1358 11.236 35.9105 11.7056 35.9105 12.302C35.9105 12.8223 36.066 13.203 36.3769 13.4442C36.6878 13.6789 37.0971 13.7963 37.6047 13.7963C38.3788 13.7963 39.0197 13.5774 39.5273 13.1396C40.0412 12.6954 40.2982 12.0451 40.2982 11.1885V10.2747Z" fill="#00D4E4"/>
<path d="M54.8319 4.77348V15.3096H53.0711L52.7665 13.8915H52.6428C52.4207 14.2532 52.1383 14.5546 51.7957 14.7957C51.453 15.0305 51.0723 15.2049 50.6536 15.3192C50.2348 15.4397 49.7938 15.5 49.3306 15.5C48.5374 15.5 47.8585 15.3667 47.2938 15.1002C46.7354 14.8274 46.3071 14.4086 46.0089 13.8439C45.7107 13.2792 45.5616 12.5495 45.5616 11.6548V4.77348H47.8077V11.236C47.8077 12.0546 47.9727 12.6669 48.3027 13.073C48.639 13.4791 49.1593 13.6821 49.8636 13.6821C50.5425 13.6821 51.0819 13.5425 51.4816 13.2633C51.8813 12.9841 52.1637 12.5717 52.3287 12.026C52.5 11.4803 52.5857 10.8109 52.5857 10.0178V4.77348H54.8319Z" fill="#00D4E4"/>
<path d="M60.276 0.5V7.65736C60.276 7.98096 60.2633 8.33629 60.2379 8.72335C60.2126 9.10406 60.1872 9.46256 60.1618 9.79886H60.2094C60.3744 9.57678 60.5711 9.31662 60.7995 9.0184C61.0343 8.72018 61.2563 8.46002 61.4657 8.23794L64.6827 4.77348H67.2525L63.0362 9.30393L67.5286 15.3096H64.9017L61.5324 10.684L60.276 11.7595V15.3096H58.0393V0.5H60.276Z" fill="#00D4E4"/>
<path d="M76.5133 0.5V7.65736C76.5133 7.98096 76.5006 8.33629 76.4753 8.72335C76.4499 9.10406 76.4245 9.46256 76.3991 9.79886H76.4467C76.6117 9.57678 76.8084 9.31662 77.0368 9.0184C77.2716 8.72018 77.4937 8.46002 77.703 8.23794L80.9201 4.77348H83.4899L79.2735 9.30393L83.7659 15.3096H81.139L77.7697 10.684L76.5133 11.7595V15.3096H74.2767V0.5H76.5133Z" fill="#00D4E4"/>
<path d="M89.5812 4.5736C90.9137 4.5736 91.9194 4.86865 92.5984 5.45875C93.2836 6.04886 93.6263 6.96891 93.6263 8.21891V15.3096H92.0368L91.6085 13.8154H91.5324C91.2341 14.1961 90.9264 14.5101 90.6091 14.7576C90.2919 15.0051 89.9239 15.1891 89.5051 15.3096C89.0926 15.4365 88.5882 15.5 87.9918 15.5C87.3636 15.5 86.802 15.3858 86.3071 15.1574C85.8122 14.9226 85.422 14.5673 85.1364 14.0914C84.8509 13.6155 84.7081 13.0127 84.7081 12.283C84.7081 11.198 85.111 10.3826 85.9169 9.83693C86.7291 9.29124 87.9537 8.98985 89.5907 8.93274L91.4182 8.86612V8.31408C91.4182 7.58439 91.2468 7.06408 90.9042 6.75317C90.5679 6.44226 90.092 6.2868 89.4765 6.2868C88.9499 6.2868 88.4391 6.36294 87.9442 6.51523C87.4492 6.66751 86.967 6.85469 86.4975 7.07678L85.7741 5.49682C86.2881 5.22398 86.8718 5.0019 87.5254 4.83058C88.1853 4.65926 88.8706 4.5736 89.5812 4.5736ZM91.4086 10.2747L90.0476 10.3223C88.9308 10.3604 88.1472 10.5508 87.6967 10.8934C87.2462 11.236 87.0209 11.7056 87.0209 12.302C87.0209 12.8223 87.1764 13.203 87.4873 13.4442C87.7982 13.6789 88.2075 13.7963 88.7151 13.7963C89.4892 13.7963 90.1301 13.5774 90.6377 13.1396C91.1517 12.6954 91.4086 12.0451 91.4086 11.1885V10.2747Z" fill="#00D4E4"/>
<path d="M102.097 4.5736C102.275 4.5736 102.468 4.58312 102.678 4.60216C102.887 4.62119 103.068 4.64657 103.22 4.6783L103.011 6.77221C102.878 6.73414 102.713 6.70558 102.516 6.68655C102.326 6.66751 102.154 6.65799 102.002 6.65799C101.602 6.65799 101.221 6.72462 100.86 6.85787C100.498 6.98477 100.178 7.18147 99.8985 7.44797C99.6193 7.70812 99.4004 8.0349 99.2418 8.4283C99.0831 8.8217 99.0038 9.27855 99.0038 9.79886V15.3096H96.7576V4.77348H98.5089L98.8135 6.62944H98.9182C99.1275 6.25507 99.3877 5.91243 99.6986 5.60152C100.01 5.29061 100.365 5.04315 100.765 4.85914C101.171 4.66878 101.615 4.5736 102.097 4.5736Z" fill="#00D4E4"/>
<path d="M109.093 13.6916C109.385 13.6916 109.673 13.6662 109.959 13.6155C110.244 13.5584 110.504 13.4917 110.739 13.4156V15.1098C110.492 15.2176 110.171 15.3096 109.778 15.3858C109.385 15.4619 108.975 15.5 108.55 15.5C107.954 15.5 107.418 15.4016 106.942 15.2049C106.466 15.0019 106.088 14.6561 105.809 14.1675C105.53 13.6789 105.39 13.0032 105.39 12.1402V6.47716H103.953V5.47779L105.495 4.68782L106.228 2.43211H107.636V4.77348H110.654V6.47716H107.636V12.1117C107.636 12.6447 107.77 13.0412 108.036 13.3014C108.303 13.5615 108.655 13.6916 109.093 13.6916Z" fill="#00D4E4"/>
<path d="M122.065 4.77348V15.3096H120.305L120 13.8915H119.876C119.654 14.2532 119.372 14.5546 119.029 14.7957C118.687 15.0305 118.306 15.2049 117.887 15.3192C117.468 15.4397 117.027 15.5 116.564 15.5C115.771 15.5 115.092 15.3667 114.527 15.1002C113.969 14.8274 113.541 14.4086 113.242 13.8439C112.944 13.2792 112.795 12.5495 112.795 11.6548V4.77348H115.041V11.236C115.041 12.0546 115.206 12.6669 115.536 13.073C115.872 13.4791 116.393 13.6821 117.097 13.6821C117.776 13.6821 118.315 13.5425 118.715 13.2633C119.115 12.9841 119.397 12.5717 119.562 12.026C119.734 11.4803 119.819 10.8109 119.819 10.0178V4.77348H122.065Z" fill="#00D4E4"/>
<path d="M29.9154 1.39877C31.0875 1.42035 31.7331 1.73229 31.7331 1.73229L31.711 2.93208L32.6138 3.8311C32.7656 3.98217 32.668 4.22916 32.45 4.24015C31.924 4.26622 31.0332 4.29482 29.8625 4.27326C29.2879 4.26268 28.7813 4.2426 28.3524 4.21945L28.3568 4.21953C28.2886 4.44103 28.2747 4.67472 28.3161 4.90239C28.3576 5.13005 28.4532 5.34554 28.5956 5.53203C28.738 5.71853 28.9234 5.87099 29.1372 5.97753C29.351 6.08407 29.5874 6.14181 29.8281 6.14624C30.0688 6.15068 30.3073 6.10168 30.5248 6.00309C30.7424 5.90449 30.9332 5.75895 31.0824 5.57783C31.2316 5.3967 31.3351 5.18489 31.3849 4.9589C31.4347 4.73291 31.4294 4.49887 31.3694 4.27501C31.5623 4.27181 31.7395 4.26732 31.9001 4.26228C31.9603 4.55518 31.9515 4.8572 31.8743 5.1462C31.797 5.4352 31.6534 5.70384 31.4538 5.93244C31.2542 6.16104 31.0038 6.34379 30.7209 6.4673C30.438 6.59081 30.1297 6.65194 29.8188 6.64622C29.5079 6.64049 29.2021 6.56805 28.9239 6.43421C28.6458 6.30037 28.4022 6.10852 28.2112 5.87273C28.0202 5.63694 27.8865 5.36318 27.82 5.07154C27.7534 4.77989 27.7557 4.47775 27.8267 4.18727C27.6436 4.17471 27.4607 4.1605 27.278 4.14466C27.0605 4.12565 26.9721 3.87548 27.1293 3.7301L28.0649 2.86494L28.087 1.66515C28.087 1.66515 28.7434 1.37719 29.9154 1.39877Z" fill="#00D4E4"/>
</svg>
