<svg width="14" height="18" viewBox="0 0 14 18" fill="none" xmlns="http://www.w3.org/2000/svg">
<path d="M0.63468 7.10606H0.634687V7.10325C0.634687 3.53026 3.49975 0.634615 7 0.634615C10.5 0.634615 13.3653 3.53 13.3653 7.10769L13.3653 7.11051C13.3769 9.72644 11.7637 12.2397 10.0375 14.1598C9.1858 15.1073 8.33135 15.883 7.6893 16.4219C7.4126 16.6542 7.17625 16.8417 6.99777 16.9793C6.38267 16.5125 5.11289 15.4878 3.8642 14.089C2.17582 12.1975 0.623055 9.72942 0.63468 7.10606ZM2.86542 7.10769C2.86542 9.41251 4.70668 11.2962 7 11.2962C9.29333 11.2962 11.1346 9.41251 11.1346 7.10769C11.1346 4.80288 9.29333 2.91923 7 2.91923C4.70668 2.91923 2.86542 4.80288 2.86542 7.10769Z" stroke="#666666" stroke-width="1.26923"/>
</svg>
