<svg width="64" height="64" viewBox="0 0 64 64" fill="none" xmlns="http://www.w3.org/2000/svg">
<path d="M51.7785 17.8105C54.5251 20.7278 55.9998 23.9998 55.9998 29.3038C55.9998 38.6372 49.4478 47.0025 39.9198 51.1385L37.5385 47.4638C46.4318 42.6532 48.1705 36.4105 48.8638 32.4745C47.4318 33.2158 45.5571 33.4745 43.7198 33.3038C38.9091 32.8585 35.1171 28.9092 35.1171 23.9998C35.1171 21.5245 36.1005 19.1505 37.8508 17.4002C39.6011 15.6498 41.9751 14.6665 44.4505 14.6665C47.3118 14.6665 50.0478 15.9732 51.7785 17.8105ZM25.1118 17.8105C27.8585 20.7278 29.3331 23.9998 29.3331 29.3038C29.3331 38.6372 22.7811 47.0025 13.2531 51.1385L10.8718 47.4638C19.7651 42.6532 21.5038 36.4105 22.1971 32.4745C20.7651 33.2158 18.8905 33.4745 17.0531 33.3038C12.2425 32.8585 8.45312 28.9092 8.45312 23.9998C8.45313 21.5245 9.43645 19.1505 11.1868 17.4002C12.9371 15.6498 15.3111 14.6665 17.7865 14.6665C20.6478 14.6665 23.3838 15.9732 25.1145 17.8105H25.1118Z" stroke="#00D4E4" stroke-width="1.5"/>
</svg>
